<svg id="Layer_1" data-name="Layer 1" xmlns="http://www.w3.org/2000/svg" viewBox="0 0 220.93 320.3"><defs><style>.cls-1{fill:#b79b6d;}</style></defs><path class="cls-1" d="M289.24,213.26c-.07.23-.12.47-.18.71a48.54,48.54,0,0,0-1,5.51c-.05.45-.11.9-.15,1.35-.07.66-.12,1.32-.17,2,0,.24,0,.49,0,.73a36,36,0,0,0,.12,5.4c.05.47.12.94.19,1.41.1.63.21,1.27.34,1.91.21,1,.45,2.06.69,3.06,0,.09,0,.15.05.21a.24.24,0,0,0,.11.15h0c.62.52,1.48-3,1.64-3.37a27,27,0,0,1,2.84-5.26c.29-.42.59-.85.9-1.26,1.63-2.16,3.6-4.07,5.28-6.18.52-.64,1-1.3,1.51-2q3.06-4,5.74-8.26a40,40,0,0,0,2.74-5.07,27.06,27.06,0,0,0,2.38-9.21,32.93,32.93,0,0,0-2.5-14.64,58.54,58.54,0,0,0-3.43-6.92c-.38-.65-.76-1.3-1.16-1.93,1.32,8.05.8,13.63-3.58,20-.36.52-.74,1.05-1.16,1.59l-.47.61c-.16.21-.33.42-.49.64-.52.66-1.05,1.35-1.67,2.09a47.12,47.12,0,0,0-8.18,15.52C289.48,212.45,289.35,212.85,289.24,213.26Zm.53,13.26c0-.14,0-.29.05-.43.09-.73.21-1.45.34-2.17a41.47,41.47,0,0,1,1-4.27c.24-.78.5-1.54.78-2.3s.73-1.8,1.14-2.68c.67-1.42,1.27-2.86,2.07-4.21a36,36,0,0,1,6.23-8.22c1.07-1,2.33-1.91,2.63-3.41.4,3.8-1.28,7.26-3,10.57-.44.84-.88,1.67-1.29,2.49-.63,1.25-1.25,2.49-1.92,3.71-.36.63-.71,1.26-1.09,1.88-.46.78-.94,1.55-1.44,2.3-.64,1-1.29,1.93-1.94,2.9-.79,1.19-1.58,2.39-2.31,3.63a15.28,15.28,0,0,0-.78,1.57,3.42,3.42,0,0,1-.23.42,1,1,0,0,1-.23.26s0-.14,0-.17l0-.37A6.84,6.84,0,0,1,289.77,226.52Z" transform="translate(-167.54 -127.85)"/><path class="cls-1" d="M388.46,239.32l-1.06.54c-2.1,1.07-4.35,2.17-6.68,3.28-.19-7-.34-11.22-.34-11.43l-.05-1.36-1.09.84q-5.1,4-10.4,7.63c-1.77-8.58-3.12-13.71-3.17-13.9h-1.36c-2.46,10.14-7.6,14.35-9.43,15.56h0c-8.09-16.31-16.58-24.54-16.66-24.63l-.19-.18h-.27c-6.89-.25-11.83,1.29-14.68,4.58a11.29,11.29,0,0,0-2.46,8.83l.05.27.22.17a110.91,110.91,0,0,1,17.54,16.07v.54c0,.06-.23,7.35-30.94,15.36-1.84.48-3.56,1-5.18,1.45,1.82-3.09,4.87-7.77,7.82-10,1.11,0,5.15,0,7.47-2.2a5.17,5.17,0,0,0,1.63-3.93,5,5,0,0,0-1.67-4c-2.42-2.12-6.64-1.69-7.19-1.63H246.5c-.54-.06-4.76-.49-7.18,1.63a5,5,0,0,0-1.67,4,5.17,5.17,0,0,0,1.63,3.93c2.13,2,5.73,2.21,7.13,2.21h.34c3,2.33,6.2,7.27,8,10.35-1.92-.6-4-1.18-6.23-1.77-30.71-8-30.94-15.3-30.94-15.34l-.34-.18a111.56,111.56,0,0,1,17.88-16.45l.23-.17.05-.27a11.34,11.34,0,0,0-2.46-8.83c-2.85-3.29-7.79-4.83-14.69-4.58H218l-.19.18c-.08.09-8.57,8.32-16.65,24.63h0c-1.83-1.22-7-5.42-9.43-15.56h-1.35c-.05.19-1.41,5.32-3.18,13.89q-5.29-3.63-10.4-7.62l-1.09-.84,0,1.36c0,.21-.16,4.47-.35,11.43-2.33-1.11-4.57-2.21-6.68-3.28l-1.06-.54.05,1.19c0,1,4.18,102.46,3.14,137.63v.41l.35.21c.29.18,5.49,3.23,17,3.23a85.4,85.4,0,0,0,16.38-1.74c17.56-3.46,38.73-7.63,60.72-4.86l2.18,18.86H171.6V395H386v-.77h-97.3l2.16-18.86c22-2.77,43.14,1.4,60.7,4.86A85.42,85.42,0,0,0,368,382c11.48,0,16.68-3.05,17-3.23l.35-.21v-.41c-1-35.17,3.1-136.61,3.14-137.63ZM379,233.13c.05,1.88.17,5.6.31,10.66,0,.25,0,.51,0,.76s0,.5,0,.76c.76,28.55,2,94.49-1.42,121.39-.63.73-5.23,5.11-23.44,4.82a104.29,104.29,0,0,1-15.9-1.82c-11.23-1.88-23.67-3.95-43.72.95,13.67-3.79,29.29-5.85,46.68-6.12,22-.35,31.81-7.52,32.22-7.83l.22-.17.05-.27c6.64-38.49,1.44-81.13-3.23-107.08,0-.24-.09-.47-.12-.71s-.09-.47-.13-.7c-.5-2.69-1-5.19-1.44-7.47C372.48,238,375.79,235.62,379,233.13ZM322,228.56a9.94,9.94,0,0,1,2.17-7.4c2.52-2.92,7-4.3,13.3-4.11,1.28,1.3,8.88,9.37,16.26,24.33.1.22.21.45.32.67s.21.44.32.67c.65,1.35,1.3,2.75,1.93,4.22.1.21.19.44.28.66s.19.42.28.63q.94,2.24,1.86,4.63c.08.22.17.43.25.66s.16.43.23.64a156.7,156.7,0,0,1,9.35,50.08c0,.37,0,.71,0,1.07-.49-2.62-1.15-5.68-2-9.05-1-3.65-2.16-7.67-3.71-11.92A129.76,129.76,0,0,0,356,268.77a123.74,123.74,0,0,0-6.3-10.73c-.13-.2-.26-.39-.38-.59l-.4-.6c-.65-1-1.33-1.93-2-2.9l-.39-.55c-.15-.2-.29-.4-.44-.59q-.84-1.16-1.74-2.31l-.43-.56c-.15-.19-.29-.38-.45-.56l-.26-.33A113.65,113.65,0,0,0,322,228.56ZM201.69,242.72c.1-.22.21-.44.32-.66s.21-.46.32-.67c7.37-15,15-23,16.25-24.34,6.29-.19,10.76,1.18,13.29,4.09a10.06,10.06,0,0,1,2.19,7.42A113.62,113.62,0,0,0,212.86,249l-.27.33c-.15.19-.29.38-.45.57l-.43.56q-.89,1.16-1.74,2.31l-.43.58-.4.56c-.69,1-1.36,1.93-2,2.9l-.4.6-.39.58c-2.39,3.65-4.49,7.27-6.31,10.77a131.65,131.65,0,0,0-6.84,15.54c-1.55,4.26-2.75,8.28-3.71,11.94-.87,3.36-1.53,6.42-2,9,0-.36,0-.7,0-1.06a156.76,156.76,0,0,1,9.35-50.09c.09-.21.16-.43.24-.64s.17-.44.25-.66q.91-2.4,1.87-4.63c.08-.21.17-.42.26-.63s.19-.45.29-.66C200.39,245.47,201,244.08,201.69,242.72ZM265,374c-22.09-2.7-43.25,1.47-60.83,4.93-20.13,4-30.09-.18-32-1.13.94-33.51-2.65-124.62-3.11-136.11,2,1,4.05,2,6.21,3-.75,28.32-2.08,95.35,1.44,122.41l0,.15.08.13c.15.24,3.95,5.92,24.73,5.57a110.39,110.39,0,0,0,15.79-1.7c11.9-1.86,25.16-3.93,47.65,2.37l1.56.45.77.22-.76-.1Zm3.85,20.3-2.15-18.66.92.13,1.62,18.53Zm4.23,0-.84-17.73.93.18.66,17.55Zm0-19.61-.95-.32c-1.63-.54-3.23-1-4.78-1.49l-1-.3-1.57-.44a103.63,103.63,0,0,0-28-4.15,120.64,120.64,0,0,0-19.68,1.9,109.82,109.82,0,0,1-15.59,1.68c-18.27.3-22.83-4.11-23.45-4.82-3.45-26.89-2.18-92.84-1.42-121.39,0-.26,0-.51,0-.76s0-.51,0-.76c.14-5.06.26-8.78.32-10.66,3.23,2.49,6.54,4.88,9.88,7.17-.47,2.28-1,4.78-1.44,7.46,0,.24-.09.47-.13.71s-.09.47-.13.7c-4.67,26-9.87,68.6-3.23,107.09l0,.27.22.17c.41.31,10.22,7.48,32.22,7.83,18.92.3,35.77,2.71,50.31,7.17l1.57.49,1,.32c1.64.54,3.23,1.12,4.8,1.71l1,.36,1.11.42Zm3.93,0c-1.31-.55-2.64-1.08-4-1.6l-1-.36c-1.59-.59-3.21-1.17-4.86-1.7l-1.07-.34-1.57-.48c-14.52-4.38-31.31-6.75-50.11-7.05-19.73-.31-29.62-6.35-31.18-7.4-6.51-38.06-1.41-80.17,3.21-106,.05-.23.09-.47.13-.7s.08-.47.13-.71c.47-2.58.94-5,1.38-7.19l.15-.73.15-.75c1.09-5.35,2-9.42,2.63-11.84,2.84,9,7.67,12.8,9.46,13.94-.66,1.38-1.34,2.85-2,4.4l-.29.66-.27.63q-1,2.31-1.94,4.84l-.24.66c-.09.21-.16.42-.25.65-5.53,15-10.2,35.71-9.38,61.7h0c.06,12,4.34,28,4.54,28.82l.07.24.21.15c.11.08,11.95,8.35,31.06,11.25a182.5,182.5,0,0,1,42.2,11.52l1.59.67,1.16.5c1.9.82,3.57,1.6,5,2.28l1,.49c1.89.94,3.25,1.68,4.05,2.13Zm.12-94.61v8.88h-.51a87.4,87.4,0,0,1-10.6-.44l-.46-.09v3.34l.69.07c3,.27,4.27.38,4.9,1.95.69,1.73.68,3.29.65,8.46,0,1.22,0,2.63,0,4.29v17.87a72.46,72.46,0,0,1-.37,9.51,9.91,9.91,0,0,1-.38,1.65c-.71,2.06-2,2.16-4.55,2.17h-.78v3.51l.45-.06c.29,0,.62-.07,1-.1l.5,0h.11l.39,0c.4,0,.83-.05,1.31-.06l.39,0h.39l.8,0,.39,0h.39l1.31,0h.78l.8,0h2.43v31l-.12-.07c-.95-.51-2.34-1.25-4.12-2.11l-1-.49c-1.46-.69-3.15-1.47-5.05-2.28l-1.2-.51-1.59-.66a184.76,184.76,0,0,0-41.81-11.32c-17.4-2.64-28.63-9.78-30.26-10.87-.56-2.14-4.46-17.51-4.43-28.65.3-3.76,3-30.21,20.14-56.31l.39-.59.4-.6q.93-1.38,1.92-2.76c.13-.18.27-.36.4-.55s.28-.39.43-.58c.55-.75,1.1-1.5,1.68-2.24l.12-.15c.11-.13.22-.27.34-.4s.31-.37.46-.55c.92-1.05,1.81-2,2.65-2.77,1.12,2.72,6.54,8.89,31.7,15.45,2.78.73,5.3,1.46,7.58,2.19,1.18.38,2.28.76,3.33,1.13a75.37,75.37,0,0,1,7.77,3.24,41.37,41.37,0,0,1,4.89,2.82,22.16,22.16,0,0,1,2,1.49,14,14,0,0,1,2.84,3.09l.1.17c.16.26.29.5.4.72a4.76,4.76,0,0,1,.23.56A4.27,4.27,0,0,0,277.13,280.05Zm1.12,114.2h-.58l0-16.34.29-.07.39.14ZM273.06,260l0,.13.59,11.42c-.78-.43-1.54-.84-2.3-1.23a45.79,45.79,0,0,0-4.48-2.44l-.11-7.32a4.57,4.57,0,0,0-1-3.19,3.81,3.81,0,0,0-3-1.17,3.9,3.9,0,0,0-3.05,1.18,4.08,4.08,0,0,0-.86,2.89l.19,4.42c-.69-.24-1.41-.49-2.15-.73-1.35-2.44-4.48-7.78-7.84-11h58.8c-3.2,3.11-6.21,8.12-7.65,10.7-.82.26-1.6.52-2.36.78l.21-4.09a4.08,4.08,0,0,0-.9-2.94,4,4,0,0,0-3.06-1.18,3.83,3.83,0,0,0-3,1.17,4.57,4.57,0,0,0-1,3.19l-.06,6.93a44.93,44.93,0,0,0-6.7,3.75l.58-11.11-.05-.14a5.81,5.81,0,0,0-5.43-3.79A5.7,5.7,0,0,0,273.06,260Zm5.7,112h-.06l-.18.1V340.79h12.14c5.09,0,8.28.13,10.08.36l.43.06v-.44A63.15,63.15,0,0,1,303.54,326l.11-.44-3.4-.29-.51,2.64c-1.28,6.67-5.7,8.43-12.77,8.88-.78.05-1.59.08-2.42.11h-.29l-1.38,0h-1.65v-1.21a2.81,2.81,0,0,1,0-.29.66.66,0,0,0,0-.14c0-.46,0-.93,0-1.4,0-1.22-.05-2.47-.08-3.78-.11-5-.24-10.58-.24-18.75,0-19.62.49-19.62,6.43-19.62h.4V288.4l-.47.09a66.85,66.85,0,0,1-8.17.43h-.53V280l0-.17a3.49,3.49,0,0,1,.26-1.6,5.47,5.47,0,0,1,.22-.53,3.24,3.24,0,0,1,.19-.37c.09-.17.19-.34.3-.52s.18-.28.29-.42a13.82,13.82,0,0,1,1.43-1.67c.18-.17.37-.35.57-.52s.45-.41.7-.61.51-.41.79-.62a39.21,39.21,0,0,1,6.77-4,77.76,77.76,0,0,1,7.72-3.11c1.11-.39,2.29-.78,3.55-1.18,2-.63,4.17-1.25,6.55-1.87,25.15-6.56,30.57-12.73,31.7-15.45.83.79,1.72,1.73,2.64,2.77l.47.55.35.41a.76.76,0,0,0,.11.14c.57.74,1.13,1.49,1.68,2.24l.43.59.39.55q1,1.38,1.92,2.76l.4.6c.14.19.26.39.39.59,17.16,26.13,19.84,52.61,20.14,56.32,0,11.13-3.87,26.49-4.43,28.63-1.64,1.09-12.91,8.23-30.25,10.87A183.86,183.86,0,0,0,292,365.73l-1.59.66-1,.43c-1.92.82-3.61,1.59-5.08,2.29-.35.16-.69.32-1,.48-1.84.9-3.27,1.65-4.25,2.18l-.12.07Zm4.2,22.32h-.86l.85-17.56.95-.19Zm.17-21.23c-1.38.53-2.75,1.07-4.08,1.64v-1.29c.82-.46,2.21-1.22,4.17-2.19l1-.49c1.42-.69,3.1-1.46,5-2.29l1-.42,1.6-.67A181.28,181.28,0,0,1,334,355.78c19.06-2.9,30.95-11.16,31.06-11.25l.21-.14.07-.25c.21-.78,4.48-16.83,4.54-28.83h0c.82-26-3.85-46.66-9.38-61.7l-.24-.65c-.09-.22-.17-.44-.25-.66q-1-2.53-1.94-4.83l-.27-.64-.29-.66c-.67-1.55-1.35-3-2-4.4,1.8-1.13,6.62-4.89,9.46-13.94.59,2.42,1.54,6.49,2.63,11.84.05.24.11.49.16.75s.09.49.14.73q.67,3.32,1.38,7.19c.05.24.09.47.14.71s.08.47.12.7c4.62,25.81,9.72,67.92,3.22,106-1.57,1-11.45,7.09-31.19,7.4-18.82.3-35.6,2.68-50.09,7.05l-1.58.49-.9.28c-1.66.54-3.28,1.11-4.88,1.71Zm4.06,21.23h-.36l1.72-18.54.78-.12Zm96.67-16.5c-1.93.95-11.89,5.09-32,1.13-13.63-2.69-29.41-5.79-46.09-5.79A120.56,120.56,0,0,0,291,374l-1.54.19-.81.11c-1.12.17-2.25.35-3.38.55,1.16-.37,2.31-.73,3.43-1.06l.84-.25,1.57-.44c22.23-6.17,35.41-4,47.25-2a106.33,106.33,0,0,0,16.1,1.84c20.78.35,24.58-5.33,24.73-5.57l.08-.13,0-.15c3.52-27.06,2.19-94.09,1.44-122.41,2.16-1,4.24-2,6.21-3C386.51,253.13,382.93,344.24,383.86,377.75Z" transform="translate(-167.54 -127.85)"/><path class="cls-1" d="M249.49,288.93c-4.07,0-8.37-.28-10.57-.45l-.42,0v3.33h.39c4.32,0,5.62,0,5.62,10.73v15.72a108,108,0,0,1-.56,13.6c-.09.87-.19,1.72-.26,2.77-.12,1.67-1.31,2.5-3.86,2.68l-4.64.33,1.37,4.82,1.78-.78c5.27-2.31,10.73-4.7,15.53-8.27l.17-.12v-.2c0-1.08-.08-2-.13-2.9-.15-3-.32-6.34-.32-17.65V307.7c0-15.92.8-15.92,6-15.92H260v-3.33l-.42,0C255.85,288.76,252.09,288.93,249.49,288.93Z" transform="translate(-167.54 -127.85)"/><path class="cls-1" d="M171.6,417.13H270l1.32,11.47H267a2.34,2.34,0,0,0,0,4.61h2.66a9.79,9.79,0,1,0,16.59,0h3a2.34,2.34,0,0,0,0-4.61h-4.44l1.31-11.47H386v-.78H171.6Zm109.39,0h.76l-.61,11.47h-.71Zm-3.37,0h.44L278,428.6h-.36Zm-2.94,0,.43,11.47h-.41l-.55-11.47Zm3.27,28a7.15,7.15,0,0,0,6.67-4.64l-.26-.19a6.78,6.78,0,0,1-10.78-7.13h11.7a9,9,0,1,1-14.74,0h2.17a7.12,7.12,0,0,0,5.24,12Z" transform="translate(-167.54 -127.85)"/><path class="cls-1" d="M317.65,340.86h3.05a79.65,79.65,0,0,1,8.81.3l.43,0v-3.34h-.39c-5.09-.06-5.91-.89-5.91-12.06V304.37c0-11.54.33-12.25,5.94-12.59l.36,0v-3.31l-.42,0c-3.51.27-7.37.44-10.34.44s-6.85-.17-10.36-.44l-.41,0v3.3l.35,0c5,.41,5.8.47,5.8,18.15v5.93c0,21.7-.55,21.72-5.79,22l-.36,0v3.33l.42,0A79.75,79.75,0,0,1,317.65,340.86Z" transform="translate(-167.54 -127.85)"/><path class="cls-1" d="M274,210.11a67.35,67.35,0,0,1-1.36-6.68c-.13-.87-.06-1.82-.11-2.7s-.07-1.76-.09-2.64c0-.47,0-.93,0-1.4s.06-.93.09-1.4a22.15,22.15,0,0,1,.35-2.7c0-.18.09-.38.14-.57a5.27,5.27,0,0,1,1.25-2.61,3.59,3.59,0,0,1,1.6-.84,1.71,1.71,0,0,1,1.76.34,4.77,4.77,0,0,1,.91,2.45c0,.18.06.37.09.53a42.19,42.19,0,0,1,.49,5c0,.71.05,1.41.05,2.12,0,2.81-.2,5.61-.36,8.41-.12,2.17-.23,4.35-.21,6.53a38.23,38.23,0,0,0,1,8.18l.36,1.68c.36,1.66.71,3.33,1.13,5,.29,1.11.65,2.22,1,3.33s.83,2.24,1.21,3.35c.11.31.39.86.71,1,0,0,.05,0,.06,0a1.94,1.94,0,0,0,0-.61c-.07-.43-.18-.91-.19-.95a20.51,20.51,0,0,1-.53-3.32l-.06-.74a29.8,29.8,0,0,1,0-3.78c0-.76.09-1.52.16-2.28a45.13,45.13,0,0,1,2.12-9.53c.34-1.07.71-2.13,1.1-3.19,2.93-8.08,6.85-15.79,9.21-24.08.16-.56.31-1.14.45-1.71a29.28,29.28,0,0,0,.92-6.65c.07-10.56-5.75-20.14-8.5-30.09-.3-1.07-.55-2.15-.78-3.23a39.63,39.63,0,0,1-.81-5.28,23.09,23.09,0,0,1,.95-8.89,20.22,20.22,0,0,1,1.86-4.15l-.32-.06-.11,0h-.1c-10.21,8.53-26.54,25.42-29.33,38-4.94,19,5.16,35.8,15.47,52A61.65,61.65,0,0,0,274,210.11Zm-2.87-4.41a8.2,8.2,0,0,0-.87-1.48c-.29-.53-.56-1.07-.82-1.62a31.94,31.94,0,0,1-1.28-3.15,54.6,54.6,0,0,1-1.92-7.23c-.28-1.39-.52-2.78-.75-4.18a36.81,36.81,0,0,1-.54-6.55c0-1.22.1-2.43.25-3.64a38.88,38.88,0,0,1,2.32-9.39,35,35,0,0,1,4.65-8.4,61.14,61.14,0,0,1,6.68-7.25c.29-.27.56-.58.86-.82l.1.12c-.53,15.14,14.48,25.33,8.8,43.83-2.29,6.63-8.43,19.51-6.62,27.87-.3-1.4-.87-2.72-1.13-4.14a21.07,21.07,0,0,1-.31-4.12,43.11,43.11,0,0,1,.91-8c1.25-6.43,2.53-12.63,1.41-19.18-.33-1.93-.92-4.7-2.7-5.85a6.58,6.58,0,0,0-4.42-.72,6.2,6.2,0,0,0-4.34,3.85,19.33,19.33,0,0,0-1.25,3.93A35.8,35.8,0,0,0,271.13,205.7Z" transform="translate(-167.54 -127.85)"/><path class="cls-1" d="M278.57,235.25h0l-.56-1.34c-1.69-4-3.28-7.92-4.84-11.88-.16-.42-.33-.83-.49-1.25-7.55-17.53-27.17-34-21.27-54.2l1.07-4.76c-15.69,18.89-13.94,36.25,3.62,53.8C263.25,222.4,271.56,228.28,278.57,235.25Zm-26.89-31a7.49,7.49,0,0,1-.36-.69A22.61,22.61,0,0,1,249,192.78c0,.44.72,1.39,1,1.79,2.38,4.16,6.14,7.21,9.19,10.84,4.29,5.09,8.49,10.09,11.44,16.1.82,1.68,1.62,3.37,2.46,5.05h0v0c.05.09.52,1.07.54,1.06-.13,0-.4-.23-.48-.3-.3-.23-.59-.48-.88-.73-1.61-1.39-3.16-2.87-4.69-4.35s-2.89-2.78-4.38-4.13-2.88-2.65-4.24-4.07a51.44,51.44,0,0,1-3.87-4.47A39.26,39.26,0,0,1,251.68,204.23Z" transform="translate(-167.54 -127.85)"/><path class="cls-1" d="M267.3,233.54a21.29,21.29,0,0,1-1.47-1.54,20,20,0,0,1-1.66-2.43A46.09,46.09,0,0,0,258,222a17.21,17.21,0,0,0-2.25-1.84c-.36-.25-.73-.5-1.11-.73l-.62-.39-.24-.11A41.24,41.24,0,0,0,245,215.8l-.07.08h0l0,0s1.09,1,1.19,1.09a17.53,17.53,0,0,1,2.63,3c1.4,2.09,2.59,4.3,4.11,6.32.14.19.31.37.46.56.31.38.61.77.94,1.13a29.33,29.33,0,0,0,2.63,2.48l.51.44a16.66,16.66,0,0,0,2.19,1.5,23.84,23.84,0,0,0,2.37,1.19c.7.3,1.42.58,2.15.83a15.4,15.4,0,0,0,3.39.77c.17,0,.33,0,.49.06h.1a5.84,5.84,0,0,0,.74,0h.07a.43.43,0,0,0,.16-.05l0,0,.08-.09.08-.1c-.27-.16-.53-.33-.79-.51s-.39-.29-.57-.44S267.5,233.72,267.3,233.54Z" transform="translate(-167.54 -127.85)"/><path class="cls-1" d="M172.21,411.09v.63c2.24-.54,3.68-1.64,3.68-3.61v-5.4l.91-1v-.17h-3.71v.17l.91,1v5.71A2.65,2.65,0,0,1,172.21,411.09Z" transform="translate(-167.54 -127.85)"/><polygon class="cls-1" points="10.68 282.28 10.68 282.45 17.96 282.45 18.28 280.2 18.1 280.2 16.87 281.79 13.65 281.79 13.48 281.62 13.48 278.25 13.65 278.08 16.29 278.08 16.83 278.83 17.01 278.83 17.01 276.66 16.83 276.66 16.29 277.41 13.65 277.41 13.48 277.24 13.48 274.48 13.65 274.31 16.71 274.31 17.66 275.72 17.83 275.72 17.61 273.64 10.68 273.64 10.68 273.81 11.6 274.86 11.6 281.23 10.68 282.28"/><polygon class="cls-1" points="23.46 273.64 19.45 273.64 19.45 273.76 20.63 274.86 23.5 282.45 24.55 282.45 26.48 277.56 28.26 282.45 29.3 282.45 32.16 274.86 33.23 273.76 33.23 273.64 30.52 273.64 30.52 273.76 31.44 274.86 29.5 280.01 29.42 280.53 29.32 279.88 27.4 274.86 28.21 273.76 28.21 273.64 24.34 273.64 24.34 273.76 25.53 274.86 26.16 276.5 24.76 280.06 24.63 280.6 24.53 279.87 22.64 274.86 23.46 273.76 23.46 273.64"/><polygon class="cls-1" points="34.47 282.28 34.47 282.45 38.18 282.45 38.18 282.28 37.27 281.23 37.27 274.86 38.18 273.81 38.18 273.64 34.47 273.64 34.47 273.81 35.38 274.86 35.38 281.23 34.47 282.28"/><path class="cls-1" d="M210.45,409.79c-1.75,0-2.47-1.57-2.8-3.14h-.42v2.62a4.52,4.52,0,0,0,3.31,1.18c2.13,0,3.32-1.12,3.32-2.76,0-3.07-4.62-2.32-4.62-4.29a1.31,1.31,0,0,1,1.4-1.39,2.31,2.31,0,0,1,2.15,2.07h.28v-2.17a4.83,4.83,0,0,0-2.47-.57c-1.4,0-3.22.64-3.22,2.44,0,3.18,4.57,2.31,4.57,4.4A1.45,1.45,0,0,1,210.45,409.79Z" transform="translate(-167.54 -127.85)"/><polygon class="cls-1" points="47.97 282.28 47.97 282.45 51.68 282.45 51.68 282.28 50.77 281.23 50.77 278.05 50.94 277.88 54.57 277.88 54.75 278.05 54.75 281.23 53.83 282.28 53.83 282.45 57.54 282.45 57.54 282.28 56.63 281.23 56.63 274.86 57.54 273.81 57.54 273.64 53.83 273.64 53.83 273.81 54.75 274.86 54.75 277.04 54.57 277.22 50.94 277.22 50.77 277.04 50.77 274.86 51.68 273.81 51.68 273.64 47.97 273.64 47.97 273.81 48.88 274.86 48.88 281.23 47.97 282.28"/><polygon class="cls-1" points="67.41 273.81 67.41 273.64 63.69 273.64 63.69 273.81 64.61 274.86 64.61 281.23 63.7 282.28 63.7 282.45 70.8 282.45 71.12 280.2 70.95 280.2 69.52 281.79 66.67 281.79 66.5 281.62 66.5 274.86 67.41 273.81"/><polygon class="cls-1" points="72.38 282.28 72.38 282.45 79.66 282.45 79.98 280.2 79.8 280.2 78.57 281.79 75.35 281.79 75.18 281.62 75.18 278.25 75.35 278.08 77.99 278.08 78.53 278.83 78.71 278.83 78.71 276.66 78.53 276.66 77.99 277.41 75.35 277.41 75.18 277.24 75.18 274.48 75.35 274.31 78.41 274.31 79.36 275.72 79.53 275.72 79.31 273.64 72.38 273.64 72.38 273.81 73.3 274.86 73.3 281.23 72.38 282.28"/><path class="cls-1" d="M254.29,410.3h4v-.17l-1.19-1.05-3.22-7.87h-.82l-3.23,7.87-1.08,1.05v.17h2.57v-.17l-.75-1.05.66-1.6h3.2l.65,1.6-.79,1.05Zm-2.79-3.49,1.28-3.18.05-.32,0,.44,1.27,3.06Z" transform="translate(-167.54 -127.85)"/><path class="cls-1" d="M259.5,410.13v.17h3.71v-.17l-.92-1.05v-2.4l.18-.17h.82l1.72,2.57,1.36,1.22,1.61.53-2.2-4.26-.9-.13c1.38-.21,2.52-1,2.52-2.5,0-1.71-1.4-2.45-3.33-2.45H259.5v.17l.91,1v6.37Zm2.79-7.8.18-.17h1.32a1.84,1.84,0,0,1,0,3.68h-1.32l-.18-.17Z" transform="translate(-167.54 -127.85)"/><polygon class="cls-1" points="101.55 282.28 101.55 282.45 104.04 282.45 104.04 282.28 103.13 281.23 103.13 275.75 103.33 276.39 109.19 282.45 109.19 274.86 110.11 273.81 110.11 273.64 107.62 273.64 107.62 273.81 108.53 274.86 108.53 279.35 108.29 278.68 103.41 273.64 101.55 273.64 101.55 273.81 102.47 274.86 102.47 281.23 101.55 282.28"/><polygon class="cls-1" points="111.54 282.28 111.54 282.45 115.25 282.45 115.25 282.28 114.34 281.23 114.34 274.86 115.25 273.81 115.25 273.64 111.54 273.64 111.54 273.81 112.45 274.86 112.45 281.23 111.54 282.28"/><polygon class="cls-1" points="116.68 282.28 116.68 282.45 119.17 282.45 119.17 282.28 118.26 281.23 118.26 275.75 118.46 276.39 124.33 282.45 124.33 274.86 125.24 273.81 125.24 273.64 122.75 273.64 122.75 273.81 123.66 274.86 123.66 279.35 123.43 278.68 118.55 273.64 116.68 273.64 116.68 273.81 117.6 274.86 117.6 281.23 116.68 282.28"/><path class="cls-1" d="M299.1,402a2.93,2.93,0,0,1,2.83,2.18h.3v-2.13a6.65,6.65,0,0,0-3.09-.72,4.72,4.72,0,0,0-4.93,4.55c0,2.85,2.1,4.56,5.21,4.56a4.17,4.17,0,0,0,3.07-1,.92.92,0,0,1-.26-.73v-1.16l.91-1.05v-.17h-3.95V407h1l.17.17v2.12c0,.42-.38.5-.81.5-2.19,0-3.29-1.54-3.29-3.89S297.41,402,299.1,402Z" transform="translate(-167.54 -127.85)"/><polygon class="cls-1" points="141.58 282.28 141.58 282.45 145.29 282.45 145.29 282.28 144.38 281.23 144.38 274.86 145.29 273.81 145.29 273.64 141.58 273.64 141.58 273.81 142.49 274.86 142.49 281.23 141.58 282.28"/><polygon class="cls-1" points="146.73 282.28 146.73 282.45 149.22 282.45 149.22 282.28 148.3 281.23 148.3 275.75 148.5 276.39 154.37 282.45 154.37 274.86 155.28 273.81 155.28 273.64 152.79 273.64 152.79 273.81 153.7 274.86 153.7 279.35 153.47 278.68 148.59 273.64 146.73 273.64 146.73 273.81 147.64 274.86 147.64 281.23 146.73 282.28"/><path class="cls-1" d="M327.43,409.79c-1.75,0-2.47-1.57-2.8-3.14h-.42v2.62a4.53,4.53,0,0,0,3.32,1.18c2.12,0,3.31-1.12,3.31-2.76,0-3.07-4.62-2.32-4.62-4.29a1.32,1.32,0,0,1,1.41-1.39,2.29,2.29,0,0,1,2.14,2.07h.28v-2.17a4.83,4.83,0,0,0-2.47-.57c-1.4,0-3.22.64-3.22,2.44,0,3.18,4.57,2.31,4.57,4.4A1.45,1.45,0,0,1,327.43,409.79Z" transform="translate(-167.54 -127.85)"/><polygon class="cls-1" points="170.04 274.31 171.78 274.31 172.95 275.9 173.12 275.9 172.79 273.64 165.06 273.64 164.73 275.9 164.9 275.9 166.07 274.31 167.81 274.31 167.98 274.48 167.98 281.23 167.07 282.28 167.07 282.45 170.78 282.45 170.78 282.28 169.87 281.23 169.87 274.48 170.04 274.31"/><polygon class="cls-1" points="174.42 282.28 174.42 282.45 178.13 282.45 178.13 282.28 177.22 281.23 177.22 274.86 178.13 273.81 178.13 273.64 174.42 273.64 174.42 273.81 175.33 274.86 175.33 281.23 174.42 282.28"/><polygon class="cls-1" points="184.74 274.31 186.48 274.31 187.65 275.9 187.82 275.9 187.49 273.64 179.76 273.64 179.43 275.9 179.6 275.9 180.77 274.31 182.51 274.31 182.68 274.48 182.68 281.23 181.77 282.28 181.77 282.45 185.48 282.45 185.48 282.28 184.57 281.23 184.57 274.48 184.74 274.31"/><path class="cls-1" d="M360.34,401.66v-.17h-3.71v.17l.91,1v4.14c0,2.39,1.19,3.6,4.15,3.6,2.58,0,3.1-1.4,3.1-3.18v-4.56l.91-1v-.17h-2.49v.17l.92,1v4.1c0,1.88-.35,3-2.44,3s-2.26-1.48-2.26-2.94v-4.14Z" transform="translate(-167.54 -127.85)"/><polygon class="cls-1" points="204.65 274.31 206.39 274.31 207.56 275.9 207.73 275.9 207.4 273.64 199.67 273.64 199.34 275.9 199.51 275.9 200.68 274.31 202.42 274.31 202.59 274.48 202.59 281.23 201.68 282.28 201.68 282.45 205.39 282.45 205.39 282.28 204.48 281.23 204.48 274.48 204.65 274.31"/><polygon class="cls-1" points="209 282.28 209 282.45 216.28 282.45 216.6 280.2 216.43 280.2 215.19 281.79 211.97 281.79 211.8 281.62 211.8 278.25 211.97 278.08 214.61 278.08 215.16 278.83 215.33 278.83 215.33 276.66 215.16 276.66 214.61 277.41 211.97 277.41 211.8 277.24 211.8 274.48 211.97 274.31 215.03 274.31 215.98 275.72 216.15 275.72 215.93 273.64 209 273.64 209 273.81 209.92 274.86 209.92 281.23 209 282.28"/></svg>