<svg id="Layer_1" data-name="Layer 1" xmlns="http://www.w3.org/2000/svg" viewBox="0 0 281.68 209.7"><defs><style>.cls-1{fill:#b79b6e;}</style></defs><polygon class="cls-1" points="107.04 105.53 107.04 98.01 111.71 88.85 110.86 89.14 110.71 89.35 110.31 89.86 109.03 92.29 108.38 93.16 107.73 94.1 107.19 94.97 106.79 95.62 106.59 95.98 106.59 95.77 106.59 95.19 106.64 94.68 106.64 94.46 106.89 93.67 105.65 87.96 105.2 88.11 106.39 93.45 106.14 94.1 106.04 94.32 105.89 94.68 105.84 95.12 105.79 95.26 102.44 90.63 101 90.2 101.49 91.14 103.2 93.67 103.54 94.25 103.79 94.83 104.05 95.41 104.19 96.06 104.34 96.93 104.49 98.01 104.49 104.52 104.14 110.37 101.75 113.19 102.69 113.12 103.5 112.69 104.94 112.54 105.29 112.54 105.89 113.05 106.79 113.92 106.69 113.12 106.64 112.69 107.39 112.98 108.49 113.05 107.54 112.04 107.04 105.53"/><polygon class="cls-1" points="115.9 93.68 116.13 93.68 116.67 93.53 117.37 93.22 117.84 92.52 117.92 91.97 117.84 91.5 117.69 91.12 117.45 90.73 118.31 91.27 118.77 91.97 119.08 92.59 119.16 92.9 119.24 92.9 119.55 92.83 119.86 92.67 120.33 92.44 120.64 92.2 120.95 91.82 121.03 91.43 120.95 90.88 121.18 90.88 121.72 90.73 122.42 90.42 122.89 89.72 122.89 88.78 122.58 88.01 122.19 87.47 121.96 87.23 122.11 87 122.58 86.38 123.12 85.68 123.51 85.05 123.67 84.43 123.51 83.58 123.05 82.95 122.11 82.88 121.81 79.69 121.96 79.62 122.11 79.54 122.19 79.38 122.27 79.3 122.42 79 122.42 78.76 122.27 78.45 122.11 78.22 122.35 77.98 122.5 77.59 122.42 77.13 122.04 76.5 121.96 76.43 121.96 76.35 121.88 76.27 122.04 75.81 122.11 75.42 122.11 75.11 122.11 75.03 122.04 74.95 121.88 74.8 121.72 74.72 121.88 74.57 122.04 74.49 122.11 74.33 122.11 74.1 122.11 73.86 122.11 73.63 121.96 73.48 121.88 73.32 121.96 73.09 122.11 72.85 122.19 72.77 122.19 72.7 122.11 72.55 121.81 72.15 121.34 71.61 120.79 71.22 120.79 70.76 120.72 70.37 120.64 70.05 120.64 69.98 120.56 69.98 120.72 69.67 120.72 69.28 120.56 68.97 120.33 68.73 119.94 68.58 119.55 68.58 119.16 68.73 118.69 68.97 118.62 68.97 118.62 68.89 118.54 68.89 117.76 66.87 117.37 65.78 118.07 65.31 118.23 64.62 118 63.76 117.53 63.22 117.22 63.06 116.91 62.83 116.52 62.59 116.13 62.44 115.74 62.21 115.43 62.05 115.2 61.97 115.12 61.9 115.2 61.66 115.36 60.96 115.28 60.11 114.81 59.25 114.42 58.94 114.03 58.79 113.64 58.71 113.26 58.71 112.95 58.79 112.71 58.87 112.56 58.94 112.48 58.94 112.33 58.4 112.01 58.09 111.63 57.85 111.16 57.77 110.69 57.77 110.3 57.77 109.99 57.85 109.92 57.85 109.92 57.93 109.99 58.01 109.99 58.17 109.99 58.4 109.83 58.24 109.68 58.01 109.53 57.85 109.29 57.77 108.44 57.62 107.74 57.85 107.27 58.24 107.12 58.4 106.81 58.01 106.42 57.77 106.03 57.77 105.64 57.85 105.17 58.01 104.86 58.17 104.63 58.32 104.55 58.4 104.71 58.79 105.02 59.72 104.94 60.96 104.17 62.21 103.93 61.43 103.7 60.73 103.39 60.27 103 59.95 102.38 60.03 102.14 60.65 102.14 61.66 102.3 62.52 101.99 61.9 101.68 61.43 101.21 61.2 100.74 61.04 100.28 60.96 99.89 60.96 99.66 61.04 99.58 61.04 99.5 61.51 99.27 62.52 98.73 63.45 97.71 63.84 96.86 64.07 96.63 64.62 96.78 65.24 96.86 65.55 94.22 68.19 93.6 67.41 92.9 67.41 92.28 67.8 92.05 68.42 92.05 69.28 92.05 70.29 92.05 71.07 92.05 71.45 91.81 71.38 91.19 71.45 90.57 71.69 90.1 72.39 90.02 73.24 90.26 74.02 90.57 74.64 90.8 74.95 90.72 75.03 90.72 75.11 90.64 75.19 90.33 75.57 90.33 76.12 90.41 76.74 90.64 77.28 90.33 77.91 90.02 78.6 89.87 79.62 90.18 81.02 90.41 82.1 90.41 82.88 90.18 83.5 89.87 83.97 89.48 84.36 89.17 84.51 88.86 84.67 88.78 84.67 88.93 85.13 89.33 86.07 89.95 86.84 90.8 87 90.88 87.31 91.03 87.93 91.42 88.78 92.12 89.41 92.59 89.56 93.06 89.48 93.44 89.25 93.75 88.94 94.3 90.34 94.76 91.27 95.31 91.82 96 91.82 96.47 91.82 96.86 91.97 97.25 92.28 97.56 92.59 98.03 92.9 98.49 93.14 99.19 93.29 100.05 93.14 100.9 93.06 101.6 93.22 102.14 93.6 102.61 94.07 102.84 94.54 103.08 95 103.23 95.31 103.23 95.47 103.31 95.47 103.62 95.39 103.93 95.23 104.4 95 104.71 94.77 105.02 94.38 105.1 93.99 105.02 93.45 105.25 93.45 105.88 93.29 106.5 92.98 106.97 92.28 107.04 92.2 107.04 92.13 107.04 92.05 107.43 92.13 107.82 92.36 108.2 92.59 108.52 92.98 108.98 93.29 109.45 93.45 110.07 93.53 110.85 93.45 111.7 93.37 112.4 93.53 113.02 93.84 113.41 94.3 113.72 94.77 113.95 95.23 114.11 95.55 114.11 95.7 114.19 95.7 114.5 95.63 114.81 95.47 115.28 95.23 115.58 95 115.9 94.61 115.98 94.22 115.9 93.68"/><path class="cls-1" d="M332.81,247c-.52.72-1.82.79-2.71,1.3-1.26.4-1.48,2-2.66,1.56-2.3-.28-2.66-4.13-5.48-3-1.19.21-2.78-.06-3.11-1.39a6.58,6.58,0,0,1,6.84,1.61c2.4-.1,5.59-3.75,7.12-.11" transform="translate(-162.1 -183.15)"/><path class="cls-1" d="M344.39,245.24c3-.49,6.16-.13,8.36,2,.11.2.41.43.39.68-1.71.3-3.15-1.71-5-.79-1.73.49-3.52,2.33-5.14.3-2.41.23-1.83-3.28-4.16-3.94l-2.72-.71-.08-.46c2.8-.26,6,1.13,8.39,2.91" transform="translate(-162.1 -183.15)"/><path class="cls-1" d="M353.15,305.14c31.67,5.68,49.14,15.53,79.28,10l-6.12-5.11s-6.77,2.84-27.52,0-65.73-21.59-96,2.46c0,0,18.67-13.07,50.33-7.39" transform="translate(-162.1 -183.15)"/><path class="cls-1" d="M435.48,318s-.66,3.31-25.11,2.84c-29.7-.57-75.33-27.19-107.55-1.8,0,0,19.32-14.11,47.93-7.86s63.77,22.73,93,14.21Z" transform="translate(-162.1 -183.15)"/><path class="cls-1" d="M252.73,305.14c-31.67,5.68-49.13,15.53-79.27,10l6.11-5.11s6.77,2.84,27.52,0,65.73-21.59,96,2.46c0,0-18.67-13.07-50.34-7.39" transform="translate(-162.1 -183.15)"/><path class="cls-1" d="M170.4,318s.66,3.31,25.11,2.84c29.7-.57,75.33-27.19,107.56-1.8,0,0-19.33-14.11-47.93-7.86s-63.78,22.73-93,14.21Z" transform="translate(-162.1 -183.15)"/><path class="cls-1" d="M406.64,312.46c.22.11.6-1.4-4.8-2.2-10.61-1.57-28.64-31.93-28.64-31.93l-1.61-1.56c-.21,0-.48-.52-1-.49-1.19,0-2.94,3.28-3.41,4.1l-5.28,4.4-2.83-1-3-2.2c-1.08-.8-1-.51-2,.36l-7.58,6.47-5.92,4.11-9.76,3.09-6.11-6-2.12-.17-2.46-1.84c-1.44-1.07-1.22-.94-2.49.31l-6.61,6.41-4.38,4.37-11.82-13.11c-1.79-1.57-3.27-4-4.46-4.48s-1.28-.54-2,.48l-4.85,6.52L271,296.32l-2.55-.46-8.85-3.64-7.6-6.93c-5.36-3.33-7.27-8.72-9.5-8.48-1.29.14-2.65,2.07-4.18,3.34,0,0-3.78.23-4.88.78s-8.05,7.63-8.05,7.63-11.15,15.84-25.15,22.1c-7.6,3.4,10.72.28,15-1.32l-2.35,2.52,52.8-9.4,21.57,2.44c5.48,2.21,11.56,4.38,15.83,7.58,4.54-3.4,10.07-5.92,16.62-8.29l14.69-2.66,66.89,11.9Z" transform="translate(-162.1 -183.15)"/><path class="cls-1" d="M389.09,250.45a.88.88,0,1,0,1.12.54.88.88,0,0,0-1.12-.54m7.06-4.28-.56-1.29-4.13-.63,2.34-3.47-.57-1.29-3.16,4.68-3.69,1.61.51,1.15,3.68-1.61Zm-5.06-10.8-.58-1.12-7.78,4.11,2.4,4.55,1.06-.55-1.82-3.45Zm-3.94-6.74-.67-1.07L379,232.22l2.73,4.37,1-.63-2.06-3.31Zm-6.31-5.38-1.76,3.07-1.66-2.16Zm-3.64,6.3.79,1,4.77-8.25-.54-.7L373,224.1l.8,1,2.35-.65,2.26,2.94Zm-5-14.21,1.65-1.54,1.2,1.29a1.34,1.34,0,0,1,.48,1,1.13,1.13,0,0,1-.37.79,1.11,1.11,0,0,1-.81.31,1.36,1.36,0,0,1-1-.55Zm-.19,1.55-.91,5.12,1,1.11.92-5.17a2.16,2.16,0,0,0,1.05.44,2.32,2.32,0,0,0,2.64-2.47,2.54,2.54,0,0,0-.78-1.6l-2.1-2.25-6.44,6,.86.92,3-2.83Zm-9.5-3.13a3.54,3.54,0,0,0,5.23-.4l3.42-3.85-.94-.84-3.47,3.9a2.43,2.43,0,0,1-1.56.94,2.57,2.57,0,0,1-2.75-2.44,2.44,2.44,0,0,1,.74-1.67l3.46-3.9-.94-.83-3.41,3.85a3.62,3.62,0,0,0-1.05,2.57,3.7,3.7,0,0,0,1.27,2.67m-4.63-13.29,1.92,1.41L355.34,208l1,.74,4.48-6.14,1.93,1.4.7-1-4.87-3.55ZM353,198.59l-.49,3.5-2.34-1.38Zm-1,7.2,1.13.66,1.33-9.43-.75-.44-7.62,5.71,1.13.67,1.94-1.48,3.19,1.89Zm-8.45-4.7.8.38,3.72-8-1.13-.53-2.74,5.85-2.05-8.09-.79-.37-3.73,8,1.14.53L341.5,193Zm-13.77-6.15a.89.89,0,0,0,.6,1.1.88.88,0,1,0-.6-1.1m-1.55-5.27-3.68-.81-.26,1.17,2.46.54-.48,2.21a3.08,3.08,0,0,1-2.29.33,3.33,3.33,0,0,1,1.31-6.53,3.31,3.31,0,0,1,2.11,1.48l1-.63a4.35,4.35,0,0,0-2.86-2,4.52,4.52,0,1,0,1.88,8Zm-12.17,3.11.87.1,1-8.75-1.24-.14-.74,6.42-4.51-7-.87-.1-1,8.74,1.24.14.74-6.41ZM305.34,192h1.25l.11-8.79-1.25,0Zm-3.87,0,.88,0-.56-8.78-1.25.08.41,6.44-5.68-6.11-.88.06.56,8.78,1.25-.08-.4-6.45Zm-14.86-3.73-.37-2.24,1.74-.29a1.42,1.42,0,0,1,1.1.15,1.18,1.18,0,0,1,.45.75,1.15,1.15,0,0,1-.19.84,1.37,1.37,0,0,1-1,.5Zm1.19,1,3.77,3.58,1.5-.25-3.8-3.63a2.07,2.07,0,0,0,.94-.62,2.33,2.33,0,0,0,.56-1.93,2.31,2.31,0,0,0-1.15-1.64,2.51,2.51,0,0,0-1.77-.23l-3,.5,1.44,8.68,1.23-.21-.67-4.09Zm-9.14-.59,2.16,2.8-2.62.71Zm4.43,5.76,1.26-.34-5.81-7.54-.85.23-1.22,9.44,1.26-.34.3-2.42,3.57-1Zm-13.64-1.27-.81-2.11,3.53-1.34-.43-1.12-4.69,1.79,3.12,8.22,4.82-1.83-.43-1.11L270.92,197l-1.05-2.76,2.71-1-.43-1.12Zm-8.4-.1-1.13.53,3.72,8,4.67-2.18-.51-1.08L264.27,200Zm-11.63,8,2-1.27,4,6.45,1.06-.66-4-6.45,2-1.27-.63-1-5.12,3.2Zm1.71,8.15.7-.53-5.35-7-1,.76,3.93,5.13-8.12-1.92-.69.54,5.35,7,1-.76L243,207.33Zm-14.26,3.29,3.26,1.39-1.95,1.9Zm6.68,2.87.94-.91-8.75-3.75-.63.62,3.53,8.83.94-.91-.92-2.26,2.65-2.59Zm-7,7.19.84-.94-6.58-5.84-.83.94Zm-10.62-1-.79,1,6.85,5.52,3.23-4-.92-.74-2.45,3Zm-4.62,6.55-.69,1,7.35,4.84,2.84-4.3-1-.66-2.14,3.26Zm4.5,9.52.64-1.08-7.57-4.48-.64,1.08ZM217.6,242l-2-1,.78-1.58a1.38,1.38,0,0,1,.76-.8,1.17,1.17,0,0,1,1.45.72,1.38,1.38,0,0,1-.18,1.09Zm1.51-.37,5.11-1,.67-1.36-5.16.95a2.16,2.16,0,0,0,.05-1.12,2.33,2.33,0,0,0-3.25-1.62,2.58,2.58,0,0,0-1.22,1.31l-1.37,2.75,7.88,3.92.56-1.13-3.72-1.84Zm.82,8.77a2.87,2.87,0,0,0,.13-2,2.6,2.6,0,0,0-4.24-1.1,2.18,2.18,0,0,0-1.22-1.2,2.25,2.25,0,0,0-1.82.08,2.53,2.53,0,0,0-1.22,1.48l-1.06,2.79,8.22,3.13Zm-5.76.1-2.11-.81.53-1.41c.25-.66.49-.89.77-1a1.18,1.18,0,0,1,.83,0,1.12,1.12,0,0,1,.61.56c.14.27.16.6-.09,1.26Zm3.88,1.47L215.29,251l.68-1.78a1.85,1.85,0,0,1,.93-1.2,1.49,1.49,0,0,1,1.92.73,1.86,1.86,0,0,1-.09,1.52Z" transform="translate(-162.1 -183.15)"/><path class="cls-1" d="M422.78,392.46v0a9.7,9.7,0,0,1-1-5V373.93l2.1.11c1.35.15,3.4,3.45,4.8,5.42l.26-.08-1.06-5.91H411.9l-1.06,5.91.23.08c1.4-2,3.45-5.27,4.81-5.42l2.12-.11V387.4a9.8,9.8,0,0,1-1.06,5v0Zm-25.58,0v0c-1-.88-1.58-2.78-.49-5.73l.52-1.38h6l.88,2.39c.75,2.08.6,3.76-.05,4.72v0h6.33v0A13,13,0,0,1,408,388l-5.47-14.66h-1.46l-5.37,14.46a12.6,12.6,0,0,1-2.62,4.64v0Zm3-15.31,2.8,7.58h-5.61Zm-11.06,15.31,1.22-5.52-.24-.08c-1.42,2-3.78,4.9-5.78,5l-4.23.18v-8.93h1.92c1.32,0,2.49,1.77,3.45,2.65h.24v-5.86h-.24c-1,1-2.13,2.64-3.45,2.64h-1.92v-8.61l3.92.21c1.24.07,3.35,2.8,4.72,4.23l.24-.08-1-4.8H375.37v0a10.44,10.44,0,0,1,1,4.77v9.35a10.94,10.94,0,0,1-1,4.77v0ZM361.67,374c3,0,3.95,1.74,3.95,4.08,0,2.49-.81,4.82-3.92,4.82H360V374c.39,0,.73,0,1,0Zm-6.49,18.4v0H361v0a9.7,9.7,0,0,1-1-5v-3.94h2l4.49,9h5.32v-.15c-1.38-.7-1.89-1.43-2.93-3.43l-3-6a4.89,4.89,0,0,0,3.63-4.83c0-2.75-1.87-4.59-6.95-4.59h-7.3v0a9.42,9.42,0,0,1,1,5v8.87a9.7,9.7,0,0,1-1,5m-9.45,0v0a9.7,9.7,0,0,1-1-5V373.93l2.1.11c1.35.15,3.4,3.45,4.8,5.42l.26-.08-1.06-5.91H334.85l-1.06,5.91.23.08c1.4-2,3.45-5.27,4.8-5.42l2.13-.11V387.4a9.8,9.8,0,0,1-1.06,5v0Zm-15.86,0,1.23-5.52-.24-.08c-1.43,2-3.79,4.9-5.79,5l-4.23.18v-8.93h1.93c1.32,0,2.49,1.77,3.45,2.65h.23v-5.86h-.23c-1,1-2.13,2.64-3.45,2.64h-1.93v-8.61l3.92.21c1.25.07,3.35,2.8,4.73,4.23l.23-.08-1-4.8H316.07v0a10.57,10.57,0,0,1,1,4.77v9.35a11.07,11.07,0,0,1-1,4.77v0ZM302.37,374c3,0,3.94,1.74,3.94,4.08,0,2.49-.8,4.82-3.92,4.82h-1.73V374c.39,0,.72,0,1,0Zm-6.49,18.4v0h5.81v0a9.8,9.8,0,0,1-1-5v-3.94h2l4.49,9h5.32v-.15c-1.38-.7-1.9-1.43-2.93-3.43l-3-6a4.89,4.89,0,0,0,3.64-4.83c0-2.75-1.87-4.59-7-4.59h-7.29v0a9.42,9.42,0,0,1,1,5v8.87a9.7,9.7,0,0,1-1,5m-29.74,0v0H272v0a9.8,9.8,0,0,1-1-5V383h8.33v4.41a9.55,9.55,0,0,1-1.07,5v0H284v0a10.39,10.39,0,0,1-1-5v-8.9a9.94,9.94,0,0,1,1-5v0h-5.84v0a9.52,9.52,0,0,1,1.07,5v3.92h-8.33V378.5a9.73,9.73,0,0,1,1-5v0h-5.81v0a9.42,9.42,0,0,1,1,5v8.87a9.7,9.7,0,0,1-1,5m-5.4-13.83-.6-4.8a12.88,12.88,0,0,0-4.18-.7c-3.37,0-6.51,1.4-6.51,5.16,0,3.4,2.7,4.83,5.37,6.12,2.23,1.05,4.26,2.26,4.26,4.63a3.16,3.16,0,0,1-3.35,3.32c-2.36,0-4.36-1.72-6.56-5.63l-.26.07.59,5a15,15,0,0,0,5.5,1.09c3.74,0,7-1.58,7-5.66,0-3.6-2.65-5.16-5.22-6.41l-1.71-.85c-1.63-.81-2.88-1.87-2.88-3.56a2.61,2.61,0,0,1,2.78-2.75c1.84,0,3.68,1.4,5.55,5Zm-22,13.83v0h5.81v0a9.8,9.8,0,0,1-1-5v-8.9a9.73,9.73,0,0,1,1-5v0h-5.81v0a9.42,9.42,0,0,1,1,5v8.87a9.42,9.42,0,0,1-1,5m-23.25.21h1.4l5-13.16,4.54,13.16h1.4l4.62-14.3a11.56,11.56,0,0,1,2.54-4.8v0h-4v0c.91,1,1.48,2.7.5,5.66l-2.81,8.64-3.27-9.58c-.7-2.07-.46-3.79.24-4.72v0H219.1v0c1,1,1.53,2.34,2.26,4.44l.2.59-3.6,9.53-3.09-9.84c-.65-2.07-.52-3.76.24-4.72v0h-6.57v0a10.72,10.72,0,0,1,2.23,4.44Zm-10.28-.16,1.22-5.52-.23-.08c-1.43,2-3.79,4.9-5.79,5l-4.23.18v-8.93h1.92c1.33,0,2.49,1.77,3.45,2.65h.24v-5.86h-.24c-1,1-2.12,2.64-3.45,2.64h-1.92v-8.61l3.92.21c1.24.07,3.35,2.8,4.72,4.23l.24-.08-1-4.8H191.41v0a10.57,10.57,0,0,1,1,4.77v9.35a11.07,11.07,0,0,1-1,4.77v0ZM186,388.05V378.5a9.94,9.94,0,0,1,1-5v0h-5.79v0a9.93,9.93,0,0,1,1,5v11.1c0,1.69-.52,2.68-1.33,2.68-1,0-1.79-1.64-3.65-4.83l-.24.08.52,4.7a9.24,9.24,0,0,0,3.19.59c3.14,0,5.22-1.71,5.22-4.8" transform="translate(-162.1 -183.15)"/><path class="cls-1" d="M362.31,363.23h13l1.22-5.53-.24-.08c-1.34,2.1-3.71,4.9-5.7,5l-3.48.16v-13.5a9.63,9.63,0,0,1,1-5v0h-5.82v0a9.42,9.42,0,0,1,1,5v8.87a9.65,9.65,0,0,1-1,5Zm-16.87,0v-.06c-1-.88-1.59-2.77-.5-5.73l.52-1.38h6l.89,2.39c.75,2.07.59,3.76-.06,4.72v.06h6.33v-.06a12.81,12.81,0,0,1-2.38-4.43l-5.48-14.67h-1.45L344,358.53a12.66,12.66,0,0,1-2.63,4.64v.06Zm3-15.32,2.81,7.58h-5.61Zm-24.54-.67,12.3,16.06.91-.07V349.6a7.93,7.93,0,0,1,1.71-5.32v0h-4.1v0a7.64,7.64,0,0,1,1.74,5.35l.05,8.15-10.27-13.55h-4.91v0a5,5,0,0,1,2,3.82v9.75a7.56,7.56,0,0,1-1.74,5.32v.06h4.3v-.06a7.27,7.27,0,0,1-1.89-5.32Zm-15.66,15.83c-4.07,0-5.81-4-5.81-9.32s1.74-9.36,5.81-9.36,5.84,4,5.84,9.36-1.76,9.32-5.84,9.32m0,.54a9.89,9.89,0,1,0-9.91-9.86,10,10,0,0,0,9.91,9.86m-19.79-.44v.06h5.82v-.06a9.65,9.65,0,0,1-1-5v-8.9a9.63,9.63,0,0,1,1-5v0h-5.82v0a9.42,9.42,0,0,1,1,5v8.87a9.42,9.42,0,0,1-1,5m-9.45.06v-.06a9.65,9.65,0,0,1-1-5V344.7l2.1.1c1.35.16,3.4,3.45,4.8,5.42l.26-.07-1.07-5.92H268.15l-1.06,5.92.23.07c1.4-2,3.45-5.26,4.8-5.42l2.13-.1v13.46a9.65,9.65,0,0,1-1.07,5v.06Zm-25.58,0v-.06c-1-.88-1.58-2.77-.49-5.73l.51-1.38h6l.88,2.39c.75,2.07.59,3.76-.06,4.72v.06h6.34v-.06a12.8,12.8,0,0,1-2.39-4.43l-5.48-14.67h-1.45L252,358.53a12.8,12.8,0,0,1-2.62,4.64v.06Zm3-15.32,2.81,7.58h-5.61Zm-24.54-.67,12.3,16.06.91-.07V349.6a7.89,7.89,0,0,1,1.72-5.32v0h-4.1v0a7.68,7.68,0,0,1,1.73,5.35l.05,8.15-10.27-13.55h-4.9v0a5,5,0,0,1,2,3.82v9.75a7.56,7.56,0,0,1-1.74,5.32v.06h4.31v-.06a7.28,7.28,0,0,1-1.9-5.32Z" transform="translate(-162.1 -183.15)"/></svg>