<svg id="Layer_1" data-name="Layer 1" xmlns="http://www.w3.org/2000/svg" viewBox="0 0 196.99 95.26"><defs><style>.cls-1{fill:#29326e;}</style></defs><path class="cls-1" d="M360,334.12V334c-1.22-2.28-1.47-3.53-1.47-6.58V307.83l4,.14c1.65.11,4.22,4.23,6.21,6.92l.29-.11-1.39-7.58H345.17l-1.4,7.58.3.11c1.87-2.69,4.59-6.81,6.21-6.92l4-.14v19.63a11.84,11.84,0,0,1-1.47,6.58v.08Zm-34.17,0V334c-.77-1.17-1.73-3.75-.07-8l.77-2.06h8.64l1.51,4c1,2.76,1,5,.4,6.1v.08h7.32V334c-1.29-1.28-2.17-2.72-3.35-5.92L333,306.91h-.74l-7.9,20.81c-1.07,2.87-1.73,4.45-3.49,6.32v.08Zm5-21.51,4,10.62h-8.06ZM316.2,334.12l1.62-7.28-.3-.11c-2.06,2.83-4.89,6.47-7.9,6.58l-6.55.26V320.92h3.16c1.77,0,3.39,2.42,4.56,3.71h.33v-8.31h-.33c-1.28,1.4-2.75,3.86-4.56,3.86h-3.16V307.75l6.22.26c1.61.11,4.26,3.79,6.21,5.85l.29-.11-1.43-6.55h-17v.08a13.62,13.62,0,0,1,1.44,6.14V327.9a13.62,13.62,0,0,1-1.44,6.14v.08Zm-36.66-26.18c4.53,0,5.81,2.31,5.81,5.66,0,3.64-1.21,6.8-5.81,6.8h-2.86V308c.69,0,1.28,0,1.76,0ZM271,334v.08h7.17V334c-1.22-2.28-1.47-3.53-1.47-6.58v-6.32h3.2l6.61,13H293v-.26c-1.91-1-2.72-1.77-4.26-4.85l-4.38-8.57c3.68-1.18,5.34-3.71,5.34-6.8,0-3.86-2.65-6.44-9.31-6.44H271v.08a11.84,11.84,0,0,1,1.47,6.58v13.6A11.84,11.84,0,0,1,271,334m-13,.08V334a11.46,11.46,0,0,1-1.47-6.58V307.83l4,.14c1.66.11,4.23,4.23,6.21,6.92l.3-.11-1.4-7.58H243.17l-1.4,7.58.29.11c1.88-2.69,4.6-6.81,6.22-6.92l4-.14v19.63a11.76,11.76,0,0,1-1.47,6.58v.08Zm-20.79,0,1.62-7.28-.29-.11c-2.06,2.83-4.89,6.47-7.91,6.58l-6.54.26V320.92h3.16c1.76,0,3.38,2.42,4.56,3.71h.33v-8.31h-.33c-1.29,1.4-2.76,3.86-4.56,3.86h-3.16V307.75l6.21.26c1.62.11,4.26,3.79,6.21,5.85l.3-.11-1.44-6.55h-17v.08a13.74,13.74,0,0,1,1.43,6.14V327.9a13.74,13.74,0,0,1-1.43,6.14v.08Zm-36.65-26.18c4.52,0,5.81,2.31,5.81,5.66,0,3.64-1.22,6.8-5.81,6.8h-2.87V308c.7,0,1.29,0,1.76,0ZM192,334v.08h7.17V334a11.46,11.46,0,0,1-1.47-6.58v-6.32h3.2l6.62,13H214v-.26c-1.91-1-2.72-1.77-4.27-4.85l-4.37-8.57c3.67-1.18,5.33-3.71,5.33-6.8,0-3.86-2.65-6.44-9.3-6.44H192v.08a11.76,11.76,0,0,1,1.47,6.58v13.6A11.76,11.76,0,0,1,192,334" transform="translate(-182.01 -238.86)"/><path class="cls-1" d="M326.89,300.15v.07h7.17v-.07c-1.22-2.28-1.47-3.53-1.47-6.58v-6.84h12.83v6.84a11.46,11.46,0,0,1-1.47,6.58v.07h7.17v-.07a11.46,11.46,0,0,1-1.47-6.58V280a11.46,11.46,0,0,1,1.47-6.58v-.07H344v.07a11.46,11.46,0,0,1,1.47,6.58v6H332.59v-6c0-3,.25-4.3,1.47-6.58v-.07h-7.17v.07a11.84,11.84,0,0,1,1.47,6.58v13.61a11.88,11.88,0,0,1-1.47,6.58m-6.95-19.67-.73-6.66a17.92,17.92,0,0,0-6-1.07c-4.41,0-8.49,1.95-8.49,7,0,4.78,3.86,6.62,7.69,8.49,3,1.47,5.69,3.24,5.69,6.73a4.7,4.7,0,0,1-5,5c-3.35,0-6.21-2.32-9-7.61l-.3.11.74,6.8a21.87,21.87,0,0,0,7.57,1.43c5.19,0,9.63-2.31,9.63-7.83,0-5.11-3.75-7-7.39-8.79-3.27-1.58-6.36-3-6.36-6.54a3.78,3.78,0,0,1,4-4.12c2.61,0,5,1.65,7.61,7.1Zm-28.61,19.67v.07h7.17v-.07a11.46,11.46,0,0,1-1.47-6.58V280a11.46,11.46,0,0,1,1.47-6.58v-.07h-7.17v.07c1.22,2.28,1.47,3.53,1.47,6.58v13.61c0,3.05-.25,4.3-1.47,6.58m-30.86.36h.74l7.65-19.37,6.95,19.37h.73l6.66-20.44c1-3.16,1.87-4.89,3.6-6.69v-.07H282v.07c.77,1.18,1.43,3.68.07,7.9l-4.19,12.8-5.15-14.6a7.75,7.75,0,0,1,.08-6.1v-.07h-7.69v.07c1.29,1.4,1.95,2.68,3.13,5.92l.29.77-5.7,14.3-4.74-14.89c-.88-2.75-.63-5,.07-6.1v-.07h-7.68v.07c1.28,1.4,2.06,2.68,3.12,5.92Zm-13.71-.29,1.62-7.28-.3-.11c-2.06,2.83-4.89,6.47-7.9,6.58l-6.55.26V287h3.17c1.76,0,3.38,2.43,4.56,3.71h.33v-8.31h-.33c-1.29,1.4-2.76,3.87-4.56,3.87h-3.17V273.86l6.22.25c1.62.12,4.26,3.79,6.21,5.85l.3-.11-1.44-6.54h-17v.07a13.65,13.65,0,0,1,1.44,6.14V294a13.68,13.68,0,0,1-1.44,6.14v.07Zm-25.7-5.07V280a11.46,11.46,0,0,1,1.47-6.58v-.07H215.4v.07a11.76,11.76,0,0,1,1.47,6.58v17.25c0,1.8-.7,2.83-1.69,2.83-1.32,0-2.46-2.14-5-6.25l-.29.11.66,6.06a11.91,11.91,0,0,0,4.3.81c3.86,0,6.21-2,6.21-5.62" transform="translate(-182.01 -238.86)"/><path class="cls-1" d="M359.51,266.32h17.87L379,259l-.3-.11c-2,3.09-4.89,6.55-7.94,6.66l-5.55.22V246.06c0-3.05.25-4.3,1.47-6.58v-.07h-7.17v.07a11.88,11.88,0,0,1,1.47,6.58v13.61a11.84,11.84,0,0,1-1.47,6.58Zm-23,0v-.07c-.77-1.18-1.73-3.75-.07-8l.77-2.06h8.64l1.51,4c1,2.75,1,5,.4,6.1v.07h7.32v-.07c-1.29-1.29-2.17-2.72-3.35-5.92l-8-21.21H343l-7.91,20.81c-1.07,2.86-1.73,4.45-3.49,6.32v.07Zm5-21.51,4,10.63h-8.06Zm-33.41-1.54,17.06,23.16,1.33-.11V246.73a10.42,10.42,0,0,1,2.24-7.25v-.07h-5.3v.07a10.41,10.41,0,0,1,2.25,7.25l.11,13.6-15.41-20.92h-5.88v.07c2.06,1.66,2.68,2.69,2.87,5.11V259c0,3.27-.41,4.7-2.25,7.24v.07h5.66v-.07a9.4,9.4,0,0,1-2.53-7.24ZM287,266.14c-6.32,0-9.15-5.7-9.15-13.24s2.83-13.31,9.15-13.31,9.23,5.74,9.23,13.31-2.87,13.24-9.23,13.24m0,.74c6.92,0,13.9-6.18,13.9-14s-7-14-13.9-14a14,14,0,0,0,0,28m-25.87-.63v.07h7.17v-.07a11.46,11.46,0,0,1-1.47-6.58V246.06a11.46,11.46,0,0,1,1.47-6.58v-.07h-7.17v.07c1.22,2.28,1.47,3.53,1.47,6.58v13.61c0,3.05-.25,4.3-1.47,6.58m-13,.07v-.07a11.46,11.46,0,0,1-1.47-6.58V240l4,.15c1.65.11,4.23,4.23,6.21,6.91l.3-.11-1.4-7.57H233.33L231.94,247l.29.11c1.87-2.68,4.6-6.8,6.21-6.91l4-.15v19.64a11.76,11.76,0,0,1-1.47,6.58v.07Zm-34.17,0v-.07c-.77-1.18-1.73-3.75-.07-8l.77-2.06h8.64l1.51,4c1,2.75,1,5,.4,6.1v.07h7.32v-.07c-1.29-1.29-2.17-2.72-3.35-5.92l-8-21.21h-.73l-7.91,20.81c-1.06,2.86-1.73,4.45-3.49,6.32v.07Zm5-21.51,4,10.63H215Zm-33.41-1.54,17.06,23.16,1.33-.11V246.73a10.42,10.42,0,0,1,2.24-7.25v-.07h-5.3v.07a10.41,10.41,0,0,1,2.25,7.25l.11,13.6-15.41-20.92H182v.07c2.06,1.66,2.68,2.69,2.87,5.11V259c0,3.27-.41,4.7-2.25,7.24v.07h5.67v-.07a9.38,9.38,0,0,1-2.54-7.24Z" transform="translate(-182.01 -238.86)"/></svg>